<?xml version="1.0" standalone="no"?><svg xmlns="http://www.w3.org/2000/svg" viewBox="0 0 1440 320"><path fill="#D8EEFD" fill-opacity="1" d="M0,256L24,256C48,256,96,256,144,250.7C192,245,240,235,288,192C336,149,384,75,432,58.7C480,43,528,85,576,90.7C624,96,672,64,720,69.3C768,75,816,117,864,154.7C912,192,960,224,1008,208C1056,192,1104,128,1152,90.7C1200,53,1248,43,1296,58.7C1344,75,1392,117,1416,138.7L1440,160L1440,0L1416,0C1392,0,1344,0,1296,0C1248,0,1200,0,1152,0C1104,0,1056,0,1008,0C960,0,912,0,864,0C816,0,768,0,720,0C672,0,624,0,576,0C528,0,480,0,432,0C384,0,336,0,288,0C240,0,192,0,144,0C96,0,48,0,24,0L0,0Z"></path></svg>