<?xml version="1.0" standalone="no"?><svg xmlns="http://www.w3.org/2000/svg" viewBox="0 0 1440 320"><path fill="#fffffe" fill-opacity="1" d="M0,192L30,181.3C60,171,120,149,180,170.7C240,192,300,256,360,234.7C420,213,480,107,540,90.7C600,75,660,149,720,197.3C780,245,840,267,900,229.3C960,192,1020,96,1080,85.3C1140,75,1200,149,1260,170.7C1320,192,1380,160,1410,144L1440,128L1440,0L1410,0C1380,0,1320,0,1260,0C1200,0,1140,0,1080,0C1020,0,960,0,900,0C840,0,780,0,720,0C660,0,600,0,540,0C480,0,420,0,360,0C300,0,240,0,180,0C120,0,60,0,30,0L0,0Z"></path></svg>